HIERARCHY
ROOT Hips
{
	OFFSET 0.00 0.00 0.00
	CHANNELS 6 Xposition Yposition Zposition Xrotation Yrotation Zrotation
	JOINT RightUpLeg
	{
		OFFSET -3.76699 0.00000 0.00000
		CHANNELS 3 Xrotation Yrotation Zrotation
		JOINT RightLeg
		{
			OFFSET 0.00000 -18.01768 0.00000
			CHANNELS 3 Xrotation Yrotation Zrotation
			JOINT RightFoot
			{
				OFFSET 0.00000 -16.88108 0.00000
				CHANNELS 3 Xrotation Yrotation Zrotation
				JOINT RightToeBase
				{
					OFFSET 0.00000 -1.49359 5.57418
					CHANNELS 3 Xrotation Yrotation Zrotation
					End Site
					{
						OFFSET 0.00000 0.00000 2.95275
					}
				}
			}
		}
	}
	JOINT LeftUpLeg
	{
		OFFSET 3.76699 0.00000 0.00000
		CHANNELS 3 Xrotation Yrotation Zrotation
		JOINT LeftLeg
		{
			OFFSET 0.00000 -18.01768 0.00000
			CHANNELS 3 Xrotation Yrotation Zrotation
			JOINT LeftFoot
			{
				OFFSET 0.00000 -16.88108 0.00000
				CHANNELS 3 Xrotation Yrotation Zrotation
				JOINT LeftToeBase
				{
					OFFSET 0.00000 -1.49359 5.57418
					CHANNELS 3 Xrotation Yrotation Zrotation
					End Site
					{
						OFFSET 0.00000 0.00000 2.95275
					}
				}
			}
		}
	}
	JOINT Spine
	{
		OFFSET 0.00000 7.77970 0.00000
		CHANNELS 3 Xrotation Yrotation Zrotation
		JOINT RightShoulder
		{
			OFFSET 0.00000 10.94176 0.00000
			CHANNELS 3 Xrotation Yrotation Zrotation
			JOINT RightArm
			{
				OFFSET -7.70894 0.00000 0.00000
				CHANNELS 3 Xrotation Yrotation Zrotation
				JOINT RightForeArm
				{
					OFFSET -11.52135 0.00000 0.00000
					CHANNELS 3 Yrotation Zrotation Xrotation
					JOINT RightHand
					{
						OFFSET -10.17590 0.00000 0.00000
						CHANNELS 3 Xrotation Yrotation Zrotation
						End Site
						{
							OFFSET -3.93700 0.00000 0.00000
						}
						JOINT RightHandThumb1
						{
							OFFSET 0.00000 0.00000 0.00000
							CHANNELS 3 Xrotation Zrotation Yrotation
							End Site
							{
								OFFSET 0.00000 0.00000 3.93700
							}
						}
					}
				}
			}
		}
		JOINT LeftShoulder
		{
			OFFSET 0.00000 10.94176 0.00000
			CHANNELS 3 Xrotation Yrotation Zrotation
			JOINT LeftArm
			{
				OFFSET 7.70894 0.00000 0.00000
				CHANNELS 3 Xrotation Yrotation Zrotation
				JOINT LeftForeArm
				{
					OFFSET 11.52135 0.00000 0.00000
					CHANNELS 3 Yrotation Zrotation Xrotation
					JOINT LeftHand
					{
						OFFSET 10.17590 0.00000 0.00000
						CHANNELS 3 Xrotation Yrotation Zrotation
						End Site
						{
							OFFSET 3.93700 0.00000 0.00000
						}
						JOINT LeftHandThumb1
						{
							OFFSET 0.00000 0.00000 0.00000
							CHANNELS 3 Xrotation Zrotation Yrotation
							End Site
							{
								OFFSET 0.00000 0.00000 3.93700
							}
						}
					}
				}
			}
		}
		JOINT Head
		{
			OFFSET 0.00000 16.64604 0.00000
			CHANNELS 3 Xrotation Yrotation Zrotation
			End Site
			{
				OFFSET 0.00000 4.52755 0.00000
			}
		}
	}
}
MOTION
Frames:	9
Frame Time: 0.008333
-1.6992 37.1379 5.9705 -2.0593 2.9994 -2.0836 9.8640 -1.7502 0.7705 -2.6470 0.0000 -0.0000 -6.1974 -17.0489 10.2660 9.3926 -0.0000 -0.0000 11.3643 -0.4095 3.0489 -6.1584 0.0000 -0.0000 -7.8849 19.8864 -10.4420 14.7141 -0.0000 -0.0000 3.1797 3.8284 2.0958 21.7215 -29.7049 -15.6893 -61.5122 -3.4072 31.5624 6.1723 0.0000 39.2713 2.5436 -16.8714 8.7023 33.1476 -0.0000 -26.2537 4.7771 6.4758 25.1091 -28.4434 7.8229 -27.7011 -17.9888 -0.0000 -7.6929 -0.0290 -1.1359 -1.4603 32.8623 0.0000 24.3270 -3.8730 -13.0413 -4.0752
-1.7005 37.1391 5.9708 -2.0681 2.9905 -2.0686 9.8684 -1.7397 0.7558 -2.6407 0.0000 -0.0000 -6.1973 -17.0501 10.2574 9.3775 -0.0000 -0.0000 11.3659 -0.3341 3.0317 -6.0853 0.0000 -0.0000 -7.9281 19.7425 -10.3497 14.5635 -0.0000 -0.0000 3.1879 3.8316 2.0617 21.7308 -29.7019 -15.6735 -61.5400 -3.3982 31.5820 6.1309 -0.0000 39.2640 2.5397 -16.8855 8.6825 33.1476 -0.0000 -26.2537 4.7573 6.4644 25.1063 -28.4160 7.8266 -27.6982 -18.0106 0.0000 -7.6693 -0.0290 -1.1714 -1.4162 32.8623 0.0000 24.3270 -3.8419 -13.0150 -4.0534
-1.7006 37.1400 5.9719 -2.0862 2.9863 -2.0468 9.8845 -1.7540 0.7346 -2.6344 0.0000 -0.0000 -6.2046 -17.0300 10.2637 9.3808 -0.0000 -0.0000 11.3792 -0.2707 3.0120 -6.0079 0.0000 -0.0000 -7.9660 19.5863 -10.2756 14.4125 -0.0000 -0.0000 3.2059 3.8343 2.0208 21.7409 -29.6991 -15.6582 -61.5819 -3.4015 31.5960 6.0836 0.0000 39.2334 2.5437 -16.8537 8.7115 33.1476 -0.0000 -26.2537 4.7542 6.4591 25.1099 -28.4165 7.8369 -27.7061 -18.0372 -0.0000 -7.6118 -0.0279 -1.1659 -1.3701 32.8623 0.0000 24.3270 -3.8145 -13.0301 -4.0404
-1.7020 37.1414 5.9730 -2.1081 2.9741 -2.0239 9.9048 -1.7427 0.7130 -2.6327 0.0000 -0.0000 -6.2124 -17.0302 10.2673 9.4043 -0.0000 -0.0000 11.3900 -0.1270 2.9860 -5.8920 0.0000 -0.0000 -8.0256 19.3306 -10.1978 14.2241 -0.0000 -0.0000 3.2287 3.8433 1.9733 21.7710 -29.6949 -15.6294 -61.6617 -3.4388 31.6128 6.0708 -0.0000 39.2816 2.5520 -16.8645 8.7344 33.1476 -0.0000 -26.2537 4.7723 6.4718 25.1004 -28.4034 7.8004 -27.6976 -18.0443 -0.0000 -7.6293 -0.0278 -1.1867 -1.3425 32.8623 0.0000 24.3270 -3.7837 -13.0294 -4.0130
-1.7007 37.1429 5.9729 -2.1144 2.9723 -1.9929 9.9070 -1.7538 0.6790 -2.6267 0.0000 -0.0000 -6.2128 -17.0185 10.2770 9.4069 -0.0000 -0.0000 11.4368 -0.3260 2.9734 -5.9561 0.0000 -0.0000 -7.9280 19.4414 -10.0920 14.0445 -0.0000 -0.0000 3.2343 3.8418 1.9240 21.7795 -29.6937 -15.6179 -61.6889 -3.4489 31.6339 6.0482 -0.0000 39.2804 2.5678 -16.8727 8.7833 33.1476 -0.0000 -26.2537 4.7638 6.4585 25.1002 -28.4031 7.8165 -27.6967 -18.0673 0.0000 -7.6203 -0.0282 -1.1903 -1.3589 32.8623 0.0000 24.3270 -3.7579 -13.0465 -4.0002
-1.7017 37.1431 5.9716 -2.1168 2.9777 -1.9801 9.9019 -1.7709 0.6637 -2.6169 0.0000 -0.0000 -6.2234 -16.9719 10.2509 9.4040 -0.0000 -0.0000 11.4480 -0.4265 2.9789 -5.9196 0.0000 -0.0000 -7.9239 19.4215 -9.9779 13.8047 -0.0000 -0.0000 3.2384 3.8289 1.8957 21.7764 -29.6815 -15.6234 -61.7100 -3.4701 31.6526 6.0297 0.0000 39.2885 2.5700 -16.8777 8.7883 33.1476 -0.0000 -26.2537 4.7723 6.4643 25.0983 -28.4519 7.8337 -27.7003 -18.0712 0.0000 -7.5824 -0.0288 -1.1992 -1.3760 32.8623 0.0000 24.3270 -3.7322 -13.0423 -3.9847
-1.7037 37.1430 5.9709 -2.1170 2.9760 -1.9866 9.8970 -1.7599 0.6775 -2.6057 0.0000 -0.0000 -6.2347 -17.0183 10.2839 9.4283 -0.0000 -0.0000 11.4467 -0.4149 2.9876 -5.9170 0.0000 -0.0000 -7.9328 19.4086 -9.9855 13.8366 -0.0000 -0.0000 3.2346 3.8383 1.8905 21.7803 -29.6768 -15.6205 -61.7184 -3.4813 31.6549 6.0141 0.0000 39.2993 2.5847 -16.8590 8.8472 33.1476 -0.0000 -26.2537 4.7665 6.4398 25.1003 -28.4426 7.8556 -27.7040 -18.1056 0.0000 -7.5824 -0.0282 -1.1674 -1.3833 32.8623 0.0000 24.3270 -3.7068 -13.0705 -3.9794
-1.7053 37.1430 5.9698 -2.1179 2.9788 -1.9910 9.8893 -1.7798 0.6842 -2.5913 0.0000 -0.0000 -6.2375 -16.9884 10.2723 9.4275 -0.0000 -0.0000 11.4500 -0.4339 2.9973 -5.9216 0.0000 -0.0000 -7.9264 19.4151 -9.9729 13.8115 -0.0000 -0.0000 3.2357 3.8346 1.8860 21.8018 -29.6803 -15.6137 -61.7551 -3.5002 31.6720 6.0120 -0.0000 39.3183 2.5859 -16.8577 8.8520 33.1476 -0.0000 -26.2537 4.7840 6.4503 25.0919 -28.4528 7.8403 -27.7105 -18.1168 0.0000 -7.5949 -0.0281 -1.1502 -1.4004 32.8623 0.0000 24.3270 -3.6923 -13.0881 -3.9734
-1.7074 37.1427 5.9685 -2.1137 2.9814 -1.9988 9.8816 -1.7750 0.6954 -2.5869 0.0000 -0.0000 -6.2373 -16.9974 10.2737 9.3999 -0.0000 -0.0000 11.4495 -0.4562 3.0112 -5.9290 0.0000 -0.0000 -7.9350 19.4287 -9.9965 13.8499 -0.0000 -0.0000 3.2303 3.8279 1.8871 21.8287 -29.6927 -15.6061 -61.7784 -3.5063 31.6975 6.0258 0.0000 39.3407 2.5827 -16.8343 8.8529 33.1476 -0.0000 -26.2537 4.8087 6.4704 25.0905 -28.4886 7.8402 -27.7330 -18.1327 0.0000 -7.5799 -0.0276 -1.1443 -1.3798 32.8623 0.0000 24.3270 -3.6789 -13.0970 -3.9817
